<svg xmlns="http://www.w3.org/2000/svg" viewBox="0 0 1024 1024" role="img" aria-labelledby="title desc">
  <title>PaperBanana app icon</title>
  <desc>A smiling banana wearing a graduation cap and holding a paper chart.</desc>
  <defs>
    <linearGradient id="bg" x1="120" y1="76" x2="900" y2="930" gradientUnits="userSpaceOnUse">
      <stop offset="0" stop-color="#fffdf5"/>
      <stop offset="0.52" stop-color="#fff7d1"/>
      <stop offset="1" stop-color="#f3e3b1"/>
    </linearGradient>
    <linearGradient id="banana" x1="450" y1="210" x2="740" y2="850" gradientUnits="userSpaceOnUse">
      <stop offset="0" stop-color="#fff268"/>
      <stop offset="0.45" stop-color="#ffd12c"/>
      <stop offset="1" stop-color="#f4a711"/>
    </linearGradient>
    <linearGradient id="bananaShade" x1="650" y1="220" x2="860" y2="880" gradientUnits="userSpaceOnUse">
      <stop offset="0" stop-color="#ffd64d"/>
      <stop offset="1" stop-color="#d78309"/>
    </linearGradient>
    <linearGradient id="cap" x1="360" y1="128" x2="760" y2="326" gradientUnits="userSpaceOnUse">
      <stop offset="0" stop-color="#2d2a28"/>
      <stop offset="1" stop-color="#080706"/>
    </linearGradient>
    <filter id="softShadow" x="-20%" y="-20%" width="140%" height="150%">
      <feDropShadow dx="0" dy="20" stdDeviation="28" flood-color="#7a5d18" flood-opacity="0.22"/>
    </filter>
    <filter id="paperShadow" x="-20%" y="-20%" width="140%" height="140%">
      <feDropShadow dx="0" dy="14" stdDeviation="16" flood-color="#2f2208" flood-opacity="0.18"/>
    </filter>
  </defs>

  <rect x="40" y="40" width="944" height="944" rx="206" fill="url(#bg)"/>
  <rect x="43" y="43" width="938" height="938" rx="203" fill="none" stroke="#ffffff" stroke-width="16" opacity="0.62"/>
  <circle cx="540" cy="540" r="318" fill="#ffc226" opacity="0.82"/>

  <g filter="url(#softShadow)">
    <path d="M642 186c72 103 112 230 118 352 8 169-58 321-198 389 104-3 190-50 248-134 72-105 89-248 45-390-35-113-104-207-213-217z" fill="url(#bananaShade)"/>
    <path d="M610 168c58 93 72 226 45 348-34 153-130 287-268 354 148 79 341 39 443-99 79-108 92-258 36-393-47-114-135-199-256-210z" fill="url(#banana)"/>
    <path d="M604 168c-12 11-28 28-39 49 100 35 183 126 221 240 49 148 15 305-92 399 99-60 154-177 152-308-3-185-102-345-242-380z" fill="#fff7a7" opacity="0.32"/>
    <path d="M808 818c34-2 73 8 94 39-9 34-38 64-75 77-34-30-50-70-19-116z" fill="#5a3215"/>
    <path d="M578 167c22-35 53-55 94-63 21 31 29 66 22 100-47 12-86 0-116-37z" fill="#6d3b14"/>
  </g>

  <g filter="url(#paperShadow)" transform="rotate(-8 310 628)">
    <rect x="142" y="438" width="258" height="346" rx="28" fill="#fffdf8"/>
    <path d="M340 438h60v62c-28-7-48-27-60-62z" fill="#f0e8d8"/>
    <circle cx="236" cy="548" r="24" fill="#ffb31a"/>
    <circle cx="316" cy="652" r="30" fill="#ffb31a"/>
    <circle cx="210" cy="678" r="26" fill="#ffb31a"/>
    <path d="M255 564l42 55M288 655l-50 18" fill="none" stroke="#f5a300" stroke-width="14" stroke-linecap="round"/>
    <path d="M188 726h144M188 766h120" fill="none" stroke="#ded2b8" stroke-width="15" stroke-linecap="round"/>
  </g>

  <g>
    <path d="M336 230l276-86 302 78-282 101-296-93z" fill="url(#cap)"/>
    <path d="M442 292c38-46 143-55 226-20l-26 101c-67-37-151-34-221 10l21-91z" fill="#181514"/>
    <path d="M704 287c52 25 86 66 101 122" fill="none" stroke="#ef9d00" stroke-width="18" stroke-linecap="round"/>
    <circle cx="811" cy="430" r="22" fill="#ffad14"/>
    <path d="M792 448c-14 34-25 69-34 105 34 18 73 20 111 7-8-41-20-78-39-112h-38z" fill="#f9980d"/>
  </g>

  <g>
    <path d="M476 456c21-31 58-29 77 1" fill="none" stroke="#4a2505" stroke-width="22" stroke-linecap="round"/>
    <path d="M650 451c21-29 56-27 74 2" fill="none" stroke="#4a2505" stroke-width="22" stroke-linecap="round"/>
    <path d="M570 560c52 58 119 58 170 0-16 73-146 73-170 0z" fill="#542507"/>
    <path d="M640 618c31 24 70 20 93-1-28 56-81 62-126 24 7-12 18-20 33-23z" fill="#ff6c2b"/>
    <circle cx="496" cy="536" r="27" fill="#ffb640" opacity="0.82"/>
    <circle cx="762" cy="535" r="27" fill="#ffb640" opacity="0.82"/>
  </g>

  <g fill="#ffbc24">
    <path d="M174 266c20 43 30 53 73 73-43 20-53 30-73 73-20-43-30-53-73-73 43-20 53-30 73-73z"/>
    <path d="M851 576c15 32 22 39 54 54-32 15-39 22-54 54-15-32-22-39-54-54 32-15 39-22 54-54z"/>
  </g>
</svg>
